<svg width="718" height="416" xmlns="http://www.w3.org/2000/svg" xmlns:xlink="http://www.w3.org/1999/xlink" overflow="hidden"><defs><clipPath id="clip0"><rect x="0" y="0" width="718" height="416"/></clipPath></defs><g clip-path="url(#clip0)"><rect x="0" y="0" width="718" height="416.43" fill="#FFFFFF"/><path d="M43.5 133.638 43.5 35.5367 123.5 35.5367 43.5 133.638Z" stroke="#FFFFFF" stroke-width="1.33302" stroke-miterlimit="8" fill="#7F7F7F" fill-rule="evenodd"/><path d="M134.5 40.5419 134.5 138.643 54.5 138.643 134.5 40.5419Z" stroke="#FFFFFF" stroke-width="1.33302" stroke-miterlimit="8" fill="#7F7F7F" fill-rule="evenodd"/><path d="M149.5 134.639 149.5 36.5377 229.5 36.5377 149.5 134.639Z" stroke="#FFFFFF" stroke-width="1.33302" stroke-miterlimit="8" fill="#7F7F7F" fill-rule="evenodd"/><path d="M240.5 40.5419 240.5 138.643 161.5 138.643 240.5 40.5419Z" stroke="#FFFFFF" stroke-width="1.33302" stroke-miterlimit="8" fill="#7F7F7F" fill-rule="evenodd"/><path d="M258.5 136.641 258.5 38.5399 337.5 38.5399 258.5 136.641Z" stroke="#FFFFFF" stroke-width="1.33302" stroke-miterlimit="8" fill="#7F7F7F" fill-rule="evenodd"/><path d="M348.5 43.545 348.5 141.646 269.5 141.646 348.5 43.545Z" stroke="#FFFFFF" stroke-width="1.33302" stroke-miterlimit="8" fill="#7F7F7F" fill-rule="evenodd"/><path d="M43.5 246.755 43.5 148.654 123.5 148.654 43.5 246.755Z" stroke="#FFFFFF" stroke-width="1.33302" stroke-miterlimit="8" fill="#7F7F7F" fill-rule="evenodd"/><path d="M134.5 153.659 134.5 250.759 54.5 250.759 134.5 153.659Z" stroke="#FFFFFF" stroke-width="1.33302" stroke-miterlimit="8" fill="#7F7F7F" fill-rule="evenodd"/><path d="M149.5 247.756 149.5 149.655 229.5 149.655 149.5 247.756Z" stroke="#FFFFFF" stroke-width="1.33302" stroke-miterlimit="8" fill="#7F7F7F" fill-rule="evenodd"/><path d="M240.5 153.659 240.5 251.76 160.5 251.76 240.5 153.659Z" stroke="#FFFFFF" stroke-width="1.33302" stroke-miterlimit="8" fill="#7F7F7F" fill-rule="evenodd"/><path d="M257.5 249.758 257.5 151.657 337.5 151.657 257.5 249.758Z" stroke="#FFFFFF" stroke-width="1.33302" stroke-miterlimit="8" fill="#7F7F7F" fill-rule="evenodd"/><path d="M348.5 156.662 348.5 254.763 268.5 254.763 348.5 156.662Z" stroke="#FFFFFF" stroke-width="1.33302" stroke-miterlimit="8" fill="#7F7F7F" fill-rule="evenodd"/><path d="M43.5 360.873 43.5 262.771 122.5 262.771 43.5 360.873Z" stroke="#FFFFFF" stroke-width="1.33302" stroke-miterlimit="8" fill="#7F7F7F" fill-rule="evenodd"/><path d="M133.5 266.776 133.5 364.877 54.5 364.877 133.5 266.776Z" stroke="#FFFFFF" stroke-width="1.33302" stroke-miterlimit="8" fill="#7F7F7F" fill-rule="evenodd"/><path d="M149.5 361.874 149.5 263.773 228.5 263.773 149.5 361.874Z" stroke="#FFFFFF" stroke-width="1.33302" stroke-miterlimit="8" fill="#7F7F7F" fill-rule="evenodd"/><path d="M240.5 267.777 240.5 365.878 160.5 365.878 240.5 267.777Z" stroke="#FFFFFF" stroke-width="1.33302" stroke-miterlimit="8" fill="#7F7F7F" fill-rule="evenodd"/><path d="M257.5 363.876 257.5 265.775 337.5 265.775 257.5 363.876Z" stroke="#FFFFFF" stroke-width="1.33302" stroke-miterlimit="8" fill="#7F7F7F" fill-rule="evenodd"/><path d="M348.5 270.78 348.5 368.881 268.5 368.881 348.5 270.78Z" stroke="#FFFFFF" stroke-width="1.33302" stroke-miterlimit="8" fill="#7F7F7F" fill-rule="evenodd"/><path d="M20.5 35.0362C20.5 25.914 27.8873 18.5191 37 18.5191 46.1127 18.5191 53.5 25.914 53.5 35.0362 53.5 44.1583 46.1127 51.5532 37 51.5532 27.8873 51.5532 20.5 44.1583 20.5 35.0362Z" stroke="#FFFFFF" stroke-width="1.33302" stroke-miterlimit="8" fill-rule="evenodd"/><path d="M22.5 146.652C22.5 137.253 29.8873 129.634 39 129.634 48.1127 129.634 55.5 137.253 55.5 146.652 55.5 156.05 48.1127 163.669 39 163.669 29.8873 163.669 22.5 156.05 22.5 146.652Z" stroke="#FFFFFF" stroke-width="1.33302" stroke-miterlimit="8" fill-rule="evenodd"/><path d="M24.5 254.263C24.5 245.141 32.1112 237.746 41.5 237.746 50.8889 237.746 58.5 245.141 58.5 254.263 58.5 263.385 50.8889 270.78 41.5 270.78 32.1112 270.78 24.5 263.385 24.5 254.263Z" stroke="#FFFFFF" stroke-width="1.33302" stroke-miterlimit="8" fill-rule="evenodd"/><path d="M26.5 365.878C26.5 356.479 34.1111 348.86 43.5 348.86 52.8888 348.86 60.5 356.479 60.5 365.878 60.5 375.277 52.8888 382.896 43.5 382.896 34.1111 382.896 26.5 375.277 26.5 365.878Z" stroke="#FFFFFF" stroke-width="1.33302" stroke-miterlimit="8" fill-rule="evenodd"/><path d="M126.5 34.5357C126.5 25.1371 133.887 17.5181 143 17.5181 152.113 17.5181 159.5 25.1371 159.5 34.5357 159.5 43.9342 152.113 51.5532 143 51.5532 133.887 51.5532 126.5 43.9342 126.5 34.5357Z" stroke="#FFFFFF" stroke-width="1.33302" stroke-miterlimit="8" fill-rule="evenodd"/><path d="M128.5 146.151C128.5 137.029 135.887 129.634 145 129.634 154.113 129.634 161.5 137.029 161.5 146.151 161.5 155.273 154.113 162.668 145 162.668 135.887 162.668 128.5 155.273 128.5 146.151Z" stroke="#FFFFFF" stroke-width="1.33302" stroke-miterlimit="8" fill-rule="evenodd"/><path d="M130.5 253.762C130.5 244.364 138.111 236.745 147.5 236.745 156.889 236.745 164.5 244.364 164.5 253.762 164.5 263.161 156.889 270.78 147.5 270.78 138.111 270.78 130.5 263.161 130.5 253.762Z" stroke="#FFFFFF" stroke-width="1.33302" stroke-miterlimit="8" fill-rule="evenodd"/><path d="M132.5 365.378C132.5 356.255 140.111 348.86 149.5 348.86 158.889 348.86 166.5 356.255 166.5 365.378 166.5 374.5 158.889 381.895 149.5 381.895 140.111 381.895 132.5 374.5 132.5 365.378Z" stroke="#FFFFFF" stroke-width="1.33302" stroke-miterlimit="8" fill-rule="evenodd"/><path d="M230.5 34.5357C230.5 25.1371 237.887 17.5181 247 17.5181 256.113 17.5181 263.5 25.1371 263.5 34.5357 263.5 43.9342 256.113 51.5532 247 51.5532 237.887 51.5532 230.5 43.9342 230.5 34.5357Z" stroke="#FFFFFF" stroke-width="1.33302" stroke-miterlimit="8" fill-rule="evenodd"/><path d="M232.5 146.151C232.5 137.029 239.887 129.634 249 129.634 258.113 129.634 265.5 137.029 265.5 146.151 265.5 155.273 258.113 162.668 249 162.668 239.887 162.668 232.5 155.273 232.5 146.151Z" stroke="#FFFFFF" stroke-width="1.33302" stroke-miterlimit="8" fill-rule="evenodd"/><path d="M234.5 253.762C234.5 244.364 242.111 236.745 251.5 236.745 260.889 236.745 268.5 244.364 268.5 253.762 268.5 263.161 260.889 270.78 251.5 270.78 242.111 270.78 234.5 263.161 234.5 253.762Z" stroke="#FFFFFF" stroke-width="1.33302" stroke-miterlimit="8" fill-rule="evenodd"/><path d="M236.5 365.378C236.5 356.255 244.111 348.86 253.5 348.86 262.889 348.86 270.5 356.255 270.5 365.378 270.5 374.5 262.889 381.895 253.5 381.895 244.111 381.895 236.5 374.5 236.5 365.378Z" stroke="#FFFFFF" stroke-width="1.33302" stroke-miterlimit="8" fill-rule="evenodd"/><path d="M333.5 34.5357C333.5 25.1371 340.887 17.5181 350 17.5181 359.113 17.5181 366.5 25.1371 366.5 34.5357 366.5 43.9342 359.113 51.5532 350 51.5532 340.887 51.5532 333.5 43.9342 333.5 34.5357Z" stroke="#FFFFFF" stroke-width="1.33302" stroke-miterlimit="8" fill-rule="evenodd"/><path d="M335.5 146.151C335.5 137.029 342.887 129.634 352 129.634 361.113 129.634 368.5 137.029 368.5 146.151 368.5 155.273 361.113 162.668 352 162.668 342.887 162.668 335.5 155.273 335.5 146.151Z" stroke="#FFFFFF" stroke-width="1.33302" stroke-miterlimit="8" fill-rule="evenodd"/><path d="M337.5 253.762C337.5 244.364 345.111 236.745 354.5 236.745 363.889 236.745 371.5 244.364 371.5 253.762 371.5 263.161 363.889 270.78 354.5 270.78 345.111 270.78 337.5 263.161 337.5 253.762Z" stroke="#FFFFFF" stroke-width="1.33302" stroke-miterlimit="8" fill-rule="evenodd"/><path d="M339.5 365.378C339.5 356.255 347.111 348.86 356.5 348.86 365.889 348.86 373.5 356.255 373.5 365.378 373.5 374.5 365.889 381.895 356.5 381.895 347.111 381.895 339.5 374.5 339.5 365.378Z" stroke="#FFFFFF" stroke-width="1.33302" stroke-miterlimit="8" fill-rule="evenodd"/><path d="M452.5 148.654C452.5 139.255 460.111 131.636 469.5 131.636 478.889 131.636 486.5 139.255 486.5 148.654 486.5 158.052 478.889 165.671 469.5 165.671 460.111 165.671 452.5 158.052 452.5 148.654Z" stroke="#FFFFFF" stroke-width="1.33302" stroke-miterlimit="8" fill-rule="evenodd"/><text font-family="Calibri,Calibri_MSFontService,sans-serif" font-weight="400" font-size="19" transform="matrix(1 0 0 1.00103 493.793 154)">depth</text><text font-family="Yu Gothic,Yu Gothic_MSFontService,sans-serif" font-weight="400" font-size="19" transform="matrix(1 0 0 1.00103 538.869 154)">画像のピクセル</text><path d="M486.5 190.697 486.5 288.798 406.5 288.798 486.5 190.697Z" stroke="#FFFFFF" stroke-width="1.33302" stroke-miterlimit="8" fill="#7F7F7F" fill-rule="evenodd"/><text font-family="Yu Gothic,Yu Gothic_MSFontService,sans-serif" font-weight="400" font-size="19" transform="matrix(1 0 0 1.00103 497.809 252)">三角形分割</text></g></svg>